<svg id="svg" version="1.1" xmlns="http://www.w3.org/2000/svg" xmlns:xlink="http://www.w3.org/1999/xlink" width="400" height="400.18744142455483" viewBox="0, 0, 400,400.18744142455483"><g id="svgg"><path id="path0" d="M207.685 17.907 C 197.988 19.379,189.311 24.500,183.626 32.108 C 183.026 32.911,163.102 64.753,139.352 102.867 L 96.170 172.165 133.828 172.259 L 171.487 172.352 212.477 235.801 C 235.022 270.698,265.531 317.933,280.274 340.769 C 295.018 363.604,307.188 382.403,307.319 382.544 C 307.629 382.879,314.400 382.558,318.884 381.996 C 378.568 374.509,413.372 309.900,386.883 255.764 C 383.879 249.623,383.213 248.589,289.505 104.405 C 270.108 74.560,251.803 46.387,248.828 41.799 C 242.415 31.908,241.852 31.137,238.909 28.197 C 230.822 20.117,218.935 16.200,207.685 17.907 " stroke="none" fill="#3424c4" fill-rule="evenodd"></path><path id="path1" d="M68.768 214.575 C 67.054 217.229,53.624 238.020,38.923 260.779 C 9.344 306.568,10.782 304.301,9.112 307.796 C -5.349 338.055,12.599 374.612,45.306 381.518 C 49.567 382.418,51.976 382.638,57.451 382.631 C 94.891 382.582,130.698 364.565,153.312 334.396 C 154.940 332.224,159.033 326.124,162.927 320.067 L 164.560 317.527 197.544 317.479 L 230.528 317.432 221.625 303.655 C 216.728 296.078,201.074 271.849,186.838 249.813 L 160.955 209.747 116.419 209.749 L 71.884 209.750 68.768 214.575 " stroke="none" fill="#d41c64" fill-rule="evenodd"></path><path id="path2" d="" stroke="none" fill="#5c20c8" fill-rule="evenodd"></path><path id="path3" d="" stroke="none" fill="#5c20c8" fill-rule="evenodd"></path><path id="path4" d="" stroke="none" fill="#5c20c8" fill-rule="evenodd"></path></g></svg>